<svg width="128" height="128" viewBox="0 0 128 128" fill="none" xmlns="http://www.w3.org/2000/svg">
<g clip-path="url(#clip0_4062_228)">
<rect width="128" height="128" fill="white"/>
<path d="M118.426 32.5771V95.4219L64 126.845L9.57422 95.4219V32.5771L64 1.1543L118.426 32.5771Z" fill="#D9D9D9" stroke="black" stroke-width="2"/>
<path d="M61.498 20.9167C72.3347 20.9167 81.1201 29.702 81.1201 40.5387C81.1201 42.2967 80.8895 43.9957 80.459 45.61C71.1857 45.7511 62.9715 50.2615 57.79 57.1579C57.2375 57.8932 56.7192 58.6567 56.2373 59.445C50.5717 57.8717 45.9259 53.8156 43.5635 48.5114C42.4812 46.0813 41.877 43.3866 41.877 40.5387C41.877 29.7021 50.6616 20.9169 61.498 20.9167Z" fill="#F1545B" stroke="black" stroke-width="2"/>
<path d="M79.7014 55.8169C80.4611 55.8169 81.2095 55.8596 81.9436 55.9429C91.7223 57.0523 99.3235 65.3614 99.3235 75.439C99.3233 86.2755 90.5383 95.0601 79.7014 95.0601C74.4187 95.06 69.6263 92.9749 66.095 89.5737C68.4431 85.3926 69.7844 80.5682 69.7844 75.439C69.7844 71.5262 69.005 67.7845 67.5881 64.3696L67.2961 63.6909L66.9309 62.9048C66.6687 62.3607 66.3895 61.8266 66.095 61.3022C69.6263 57.9015 74.4192 55.817 79.7014 55.8169Z" fill="#11D183" stroke="black" stroke-width="2"/>
<path d="M37.3865 55.9722C41.9184 63.3842 49.7011 68.6018 58.7703 69.6304C59.7052 69.7364 60.6529 69.7944 61.6101 69.8091C62.0407 71.4237 62.2712 73.1232 62.2712 74.8813C62.2711 79.3046 60.813 83.3737 58.3494 86.6528C54.762 91.4279 49.0658 94.5023 42.6501 94.5024C31.8136 94.5024 23.0283 85.7178 23.0281 74.8813C23.0281 65.8697 29.1066 58.271 37.3865 55.9722Z" fill="#0097FF" stroke="black" stroke-width="2"/>
</g>
<defs>
<clipPath id="clip0_4062_228">
<rect width="128" height="128" fill="white"/>
</clipPath>
</defs>
</svg>
