<svg width="16" height="16" viewBox="0 0 16 16" fill="none" xmlns="http://www.w3.org/2000/svg">
<g clip-path="url(#clip0_4064_277)">
<rect width="16" height="16" fill="white"/>
<path d="M14.6777 4.14453V11.8545L8 15.7109L1.32227 11.8545V4.14453L8 0.288086L14.6777 4.14453Z" fill="#D9D9D9" stroke="black" stroke-width="0.5"/>
<path d="M8.11279 3.50789C9.29418 3.50789 10.2563 4.4794 10.2563 5.68367C10.2563 5.85704 10.2352 6.02479 10.1978 6.18562C9.14313 6.22333 8.21259 6.75148 7.62158 7.5489C7.57119 7.6169 7.52342 7.687 7.47803 7.75887C6.88783 7.57304 6.40383 7.13752 6.15381 6.56844C6.03542 6.29895 5.96925 6.00004 5.96924 5.68367C5.96924 4.47939 6.9314 3.50789 8.11279 3.50789Z" fill="#F1545B" stroke="black" stroke-width="0.4"/>
<path d="M10.0078 7.7627C10.084 7.7627 10.1589 7.76741 10.2324 7.77637C11.2085 7.89545 11.9873 8.79319 11.9873 9.90625C11.9873 11.1041 11.0878 12.0498 10.0078 12.0498C9.49878 12.0498 9.03388 11.8408 8.68066 11.4941C8.91767 11.02 9.05371 10.4796 9.05371 9.90625C9.05371 9.42179 8.95838 8.95938 8.78516 8.54102C8.75361 8.46488 8.71818 8.39045 8.68164 8.31738C9.03474 7.97134 9.49928 7.7627 10.0078 7.7627Z" fill="#11D183" stroke="black" stroke-width="0.4"/>
<path d="M5.16943 8.15648C5.70208 9.00117 6.5918 9.59504 7.62744 9.7141C7.71443 9.7241 7.80243 9.72851 7.89111 9.73167C7.92864 9.89274 7.94872 10.061 7.94873 10.2346C7.94873 10.7259 7.7895 11.1776 7.52002 11.5412C7.12746 12.0709 6.50495 12.4104 5.80518 12.4104C4.62378 12.4104 3.66162 11.4389 3.66162 10.2346C3.66166 9.25639 4.29749 8.43093 5.16943 8.15648Z" fill="#0097FF" stroke="black" stroke-width="0.4"/>
</g>
<defs>
<clipPath id="clip0_4064_277">
<rect width="16" height="16" fill="white"/>
</clipPath>
</defs>
</svg>
