<svg width="24" height="24" viewBox="0 0 24 24" fill="none" xmlns="http://www.w3.org/2000/svg">
<path d="M20.25 10.75V8.75C20.25 7.64543 19.3546 6.75 18.25 6.75H12.5352C12.2008 6.75 11.8886 6.5829 11.7031 6.3047L10.5937 4.6406C10.2228 4.0842 9.59834 3.75 8.92963 3.75H4.75C3.64543 3.75 2.75 4.64543 2.75 5.75V17.677C2.75 18.5457 3.45426 19.25 4.32301 19.25M20.25 10.75H9.49648C8.60926 10.75 7.82809 11.3345 7.57774 12.1857L5.83211 18.1208C5.63521 18.7903 5.02081 19.25 4.32301 19.25M20.25 10.75H20.6635C21.3311 10.75 21.8113 11.3917 21.6229 12.0322L19.9223 17.8143C19.6719 18.6655 18.8907 19.25 18.0035 19.25H4.32301" stroke="black" stroke-width="1.5" stroke-linecap="round" stroke-linejoin="round"/>
</svg>
