<svg width="32" height="32" viewBox="0 0 32 32" fill="none" xmlns="http://www.w3.org/2000/svg">
<g clip-path="url(#clip0_4066_283)">
<rect width="32" height="32" fill="white"/>
<path d="M29.3564 8.28809V23.7109L16 31.4229L2.64355 23.7109V8.28809L16 0.576172L29.3564 8.28809Z" fill="#D9D9D9" stroke="black"/>
<path d="M15.9995 7.33334C18.3608 7.33334 20.2748 9.24748 20.2749 11.6087C20.2749 11.9231 20.24 12.2283 20.1763 12.5218C18.0288 12.6185 16.1347 13.688 14.9263 15.2962C14.8352 15.4174 14.7478 15.542 14.6646 15.6693C13.5166 15.2919 12.5796 14.4425 12.0913 13.346C11.8557 12.817 11.7241 12.2299 11.7241 11.6087C11.7242 9.24752 13.6383 7.33341 15.9995 7.33334Z" fill="#F1545B" stroke="black"/>
<path d="M20.2148 15.4155C20.3807 15.4155 20.5441 15.4247 20.7041 15.4428C22.8343 15.6846 24.4901 17.4953 24.4902 19.6909C24.4902 22.0522 22.5762 23.9663 20.2148 23.9663C19.1361 23.9663 18.1524 23.5669 17.3994 22.9067C17.9016 21.944 18.1865 20.8496 18.1865 19.6909C18.1865 18.6862 17.9727 17.728 17.5869 16.8618C17.5284 16.7304 17.4656 16.601 17.3994 16.4741C18.1524 15.8142 19.1365 15.4155 20.2148 15.4155Z" fill="#11D183" stroke="black"/>
<path d="M10.2979 15.4985C11.4027 17.19 13.225 18.3732 15.3379 18.6128C15.4944 18.6305 15.6524 18.6407 15.8115 18.6479C15.8754 18.9417 15.9102 19.2473 15.9102 19.562C15.9101 20.5262 15.5924 21.412 15.0557 22.1264C14.2734 23.1676 13.0326 23.8374 11.6348 23.8374C9.27355 23.8373 7.35942 21.9232 7.35938 19.562C7.35938 17.6682 8.59139 16.0595 10.2979 15.4985Z" fill="#0097FF" stroke="black"/>
</g>
<defs>
<clipPath id="clip0_4066_283">
<rect width="32" height="32" fill="white"/>
</clipPath>
</defs>
</svg>
