<svg width="48" height="48" viewBox="0 0 48 48" fill="none" xmlns="http://www.w3.org/2000/svg">
<g clip-path="url(#clip0_4066_289)">
<rect width="48" height="48" fill="white"/>
<path d="M44.2842 12.2881V35.7109L24 47.4229L3.71582 35.7109V12.2881L24 0.576172L44.2842 12.2881Z" fill="#D9D9D9" stroke="black"/>
<path d="M23.999 12C27.3193 12 30.0115 14.6915 30.0117 18.0117C30.0117 18.5022 29.9517 18.9775 29.8418 19.4316C26.9125 19.5203 24.3231 20.9634 22.6807 23.1494C22.5306 23.3491 22.3889 23.5557 22.2549 23.7676C20.5794 23.2603 19.2094 22.039 18.5039 20.4551C18.1724 19.7108 17.9873 18.8848 17.9873 18.0117C17.9875 14.6916 20.679 12.0002 23.999 12Z" fill="#F1545B" stroke="black"/>
<path d="M29.7476 23.0211C29.864 23.0211 29.9797 23.0244 30.0942 23.0309L30.4351 23.0602C33.4308 23.4001 35.76 25.9454 35.7603 29.0328C35.7603 32.3532 33.068 35.0455 29.7476 35.0455C28.1789 35.0455 26.7518 34.4453 25.6802 33.4596C26.3933 32.1421 26.8003 30.6335 26.8003 29.0328C26.8002 27.6887 26.5144 26.407 25.9985 25.2487C25.901 25.0298 25.7946 24.8156 25.6812 24.6061C26.7527 23.6209 28.1794 23.0212 29.7476 23.0211Z" fill="#11D183" stroke="black"/>
<path d="M16.3037 23.1022C17.7735 25.4256 20.2444 27.0567 23.1172 27.3825C23.3719 27.4114 23.6297 27.4292 23.8896 27.4371C23.9996 27.8915 24.0596 28.3665 24.0596 28.8571C24.0596 30.2127 23.6123 31.4598 22.8574 32.4645C21.7579 33.9278 20.0124 34.8688 18.0469 34.8688C14.7267 34.8686 12.0352 32.1773 12.0352 28.8571C12.0352 26.1439 13.8339 23.8492 16.3037 23.1022Z" fill="#0097FF" stroke="black"/>
</g>
<defs>
<clipPath id="clip0_4066_289">
<rect width="48" height="48" fill="white"/>
</clipPath>
</defs>
</svg>
